# Blender v2.79 (sub 0) OBJ File: ''
# www.blender.org
mtllib plate_special.mtl
o plate
v -1.000000 -0.400000 1.000000
v -1.000000 -0.400000 -1.000000
v 1.000000 -0.400000 1.000000
v 1.000000 -0.400000 -1.000000
v -0.919638 -0.000000 0.831554
v -0.831554 -0.000000 0.919638
v -0.911916 -0.080362 1.000000
v -1.000000 -0.080362 0.911916
v -1.000000 -0.152282 1.000000
v -0.831554 -0.000000 -0.919638
v -0.919638 -0.000000 -0.831554
v -1.000000 -0.080362 -0.911916
v -0.911916 -0.080362 -1.000000
v -1.000000 -0.152282 -1.000000
v 0.831554 -0.000000 0.919638
v 0.919638 -0.000000 0.831554
v 1.000000 -0.080362 0.911916
v 0.911916 -0.080362 1.000000
v 1.000000 -0.152282 1.000000
v 0.919638 -0.000000 -0.831554
v 0.831554 -0.000000 -0.919638
v 0.911916 -0.080362 -1.000000
v 1.000000 -0.080362 -0.911916
v 1.000000 -0.152282 -1.000000
vt 1.000000 0.952109
vt 0.952109 1.000000
vt 0.047891 1.000000
vt 0.000000 0.952109
vt 0.000000 0.047891
vt 0.047891 0.000000
vt 0.952109 0.000000
vt 1.000000 0.047891
vt 0.081059 0.008806
vt 0.201799 0.008806
vt 0.236854 0.051739
vt 0.236854 0.940696
vt 0.201799 0.983630
vt 0.081059 0.983630
vt 0.081058 0.008806
vt 0.201798 0.008806
vt 0.236854 0.051739
vt 0.236854 0.940696
vt 0.201799 0.983630
vt 0.081059 0.983630
vt 0.976459 0.930823
vt 0.976459 0.069177
vt 1.000000 0.044042
vt 1.000000 0.955958
vt 0.081059 0.008806
vt 0.201799 0.008806
vt 0.236854 0.051739
vt 0.236854 0.940696
vt 0.201799 0.983630
vt 0.081059 0.983630
vt 0.081059 0.008806
vt 0.201800 0.008806
vt 0.236854 0.051739
vt 0.236854 0.940696
vt 0.201799 0.983630
vt 0.081059 0.983630
vt 0.023542 0.069177
vt 0.023542 0.930823
vt 0.000000 0.955958
vt 0.000000 0.044042
vt 0.069177 0.976459
vt 0.930823 0.976459
vt 0.955958 1.000000
vt 0.044042 1.000000
vt 0.044042 0.000000
vt 0.015154 0.015154
vt 0.015154 0.984846
vt 0.955958 0.000000
vt 0.984846 0.015154
vt 0.984846 0.984846
vt 0.069177 0.023542
vt 0.930823 0.023542
vn 0.0000 1.0000 -0.0000
vn -1.0000 -0.0000 0.0000
vn 0.0000 0.0000 1.0000
vn 0.7071 0.7071 0.0000
vn -0.0000 0.0000 -1.0000
vn 1.0000 -0.0000 0.0000
vn -0.7071 0.7071 -0.0000
vn 0.0000 0.7071 -0.7071
vn -0.5345 0.6547 0.5345
vn -0.5345 0.6547 -0.5345
vn 0.5345 0.6547 0.5345
vn 0.5345 0.6547 -0.5345
vn -0.4082 0.8165 0.4082
vn -0.4082 0.8165 -0.4082
vn 0.4082 0.8165 -0.4082
vn 0.4082 0.8165 0.4082
vn 0.0000 0.7071 0.7071
usemtl terrian
s off
f 20/1/1 21/2/1 10/3/1 11/4/1 5/5/1 6/6/1 15/7/1 16/8/1
usemtl edges
f 1/9/2 9/10/2 8/11/2 12/12/2 14/13/2 2/14/2
f 3/15/3 19/16/3 18/17/3 7/18/3 9/19/3 1/20/3
f 20/21/4 16/22/4 17/23/4 23/24/4
f 2/25/5 14/26/5 13/27/5 22/28/5 24/29/5 4/30/5
f 4/31/6 24/32/6 23/33/6 17/34/6 19/35/6 3/36/6
f 5/37/7 11/38/7 12/39/7 8/40/7
f 10/41/8 21/42/8 22/43/8 13/44/8
f 7/45/9 8/40/9 9/46/9
f 12/39/10 13/44/10 14/47/10
f 17/23/11 18/48/11 19/49/11
f 22/43/12 23/24/12 24/50/12
f 7/45/13 6/51/13 5/37/13 8/40/13
f 10/41/14 13/44/14 12/39/14 11/38/14
f 20/21/15 23/24/15 22/43/15 21/42/15
f 15/52/16 18/48/16 17/23/16 16/22/16
f 15/52/17 6/51/17 7/45/17 18/48/17
