# Blender v2.79 (sub 0) OBJ File: ''
# www.blender.org
mtllib tree_special.mtl
o tree_trunk
v -0.032959 0.000000 0.078826
v -0.050014 0.041174 0.120000
v -0.078826 0.000000 0.032959
v -0.120000 0.041174 0.050014
v -0.078826 0.600000 0.032959
v -0.120000 0.558826 0.050014
v -0.032959 0.600000 0.078826
v -0.050014 0.558826 0.120000
v -0.078826 0.000000 -0.032959
v -0.120000 0.041174 -0.050014
v -0.032959 0.000000 -0.078826
v -0.050014 0.041174 -0.120000
v -0.032959 0.600000 -0.078826
v -0.050014 0.558826 -0.120000
v -0.078826 0.600000 -0.032959
v -0.120000 0.558826 -0.050014
v 0.078826 0.000000 0.032959
v 0.120000 0.041174 0.050014
v 0.032959 0.000000 0.078826
v 0.050014 0.041174 0.120000
v 0.050014 0.558826 0.120000
v 0.120000 0.558826 0.050014
v 0.032959 0.000000 -0.078826
v 0.050014 0.041174 -0.120000
v 0.078826 0.000000 -0.032959
v 0.120000 0.041174 -0.050014
v 0.078826 0.600000 -0.032959
v 0.120000 0.558826 -0.050014
v 0.050014 0.558826 -0.120000
v -0.050014 0.641174 0.120000
v -0.120000 0.641174 0.050014
v -0.078826 1.200000 0.032959
v -0.120000 1.158826 0.050014
v -0.032959 1.200000 0.078826
v -0.050014 1.158826 0.120000
v -0.120000 0.641174 -0.050014
v -0.050014 0.641174 -0.120000
v -0.032959 1.200000 -0.078826
v -0.050014 1.158826 -0.120000
v -0.078826 1.200000 -0.032959
v -0.120000 1.158826 -0.050014
v 0.078826 0.600000 0.032959
v 0.120000 0.641174 0.050014
v 0.032959 0.600000 0.078826
v 0.050014 0.641174 0.120000
v 0.032959 1.200000 0.078826
v 0.050014 1.158826 0.120000
v 0.078826 1.200000 0.032959
v 0.120000 1.158826 0.050014
v 0.032959 0.600000 -0.078826
v 0.050014 0.641174 -0.120000
v 0.120000 0.641174 -0.050014
v 0.078826 1.200000 -0.032959
v 0.120000 1.158826 -0.050014
v 0.032959 1.200000 -0.078826
v 0.050014 1.158826 -0.120000
vt 0.585500 1.041638
vt 0.585500 0.848280
vt 0.980714 0.848280
vt 0.980714 1.041638
vt 0.585500 1.259207
vt 0.585500 1.098431
vt 0.980714 1.098431
vt 0.980714 1.259207
vt 0.585500 0.922718
vt 0.585500 0.746578
vt 0.980714 0.746578
vt 0.980714 0.922718
vt 0.585500 0.964772
vt 0.585500 1.085241
vt 0.980714 1.085241
vt 0.980714 0.964772
vt 0.585500 0.567614
vt 0.585500 0.391109
vt 0.980714 0.391109
vt 0.980714 0.567614
vt 0.585500 0.273484
vt 0.585500 0.718351
vt 0.980714 0.718351
vt 0.980714 0.273484
vt 0.585500 0.212526
vt 0.585500 0.039223
vt 0.980714 0.039223
vt 0.980714 0.212526
vt 0.585500 0.048331
vt 0.585500 0.173115
vt 0.980714 0.173115
vt 0.980714 0.048331
vt 0.980714 0.273484
vt 0.585500 0.273484
vt 0.585500 -0.123744
vt 0.980714 -0.123744
vt 0.490717 0.990431
vt 0.464753 0.990431
vt 0.446096 0.971774
vt 0.446096 0.945809
vt 0.464753 0.927152
vt 0.490717 0.927152
vt 0.509375 0.945809
vt 0.509374 0.971773
vt 0.980714 1.098431
vt 0.980714 1.259207
vt 0.585500 1.259207
vt 0.585500 1.098431
vt 0.585500 0.273484
vt 0.585500 0.048331
vt 0.980714 0.048331
vt 0.980714 0.273484
vt 0.585500 0.173115
vt 0.585500 0.273484
vt 0.980714 0.273484
vt 0.980714 0.173115
vt 0.980714 0.746578
vt 0.980714 0.922718
vt 0.585500 0.922718
vt 0.585500 0.746578
vt 0.585500 0.718351
vt 0.585500 0.964772
vt 0.980714 0.964772
vt 0.980714 0.718351
vt 0.980714 0.391109
vt 0.980714 0.567614
vt 0.585500 0.567614
vt 0.585500 0.391109
vt 0.585500 1.085241
vt 0.585500 1.041638
vt 0.980714 1.041638
vt 0.980714 1.085241
vt 0.980714 0.039223
vt 0.980714 0.212526
vt 0.585500 0.212526
vt 0.585500 0.039223
vt 0.585500 -0.123744
vt 0.980714 -0.123744
vt 0.585500 0.848280
vt 0.980714 0.848280
vt 0.545989 0.079667
vt 0.545989 0.909656
vt 0.040811 0.909656
vt 0.040811 0.079667
vt 0.040811 0.909656
vt 0.040811 0.079667
vt 0.545989 0.079667
vt 0.545989 0.909656
vt 0.040811 0.909656
vt 0.040811 0.079667
vt 0.545989 0.079667
vt 0.545989 0.909656
vt 0.040811 0.909656
vt 0.040811 0.079667
vt 0.545989 0.079667
vt 0.545989 0.909656
vt 0.545989 0.079667
vt 0.545989 0.909656
vt 0.040811 0.909656
vt 0.040811 0.079667
vt 0.545989 0.079667
vt 0.545989 0.909656
vt 0.040811 0.909656
vt 0.040811 0.079667
vt 0.545989 0.079667
vt 0.545989 0.909656
vt 0.040811 0.909656
vt 0.040811 0.079667
vt 0.545989 0.079667
vt 0.545989 0.909656
vt 0.040811 0.909656
vt 0.040811 0.079667
vt 0.545989 0.079667
vt 0.545989 0.909656
vt 0.040811 0.909656
vt 0.040811 0.079667
vt 0.040811 0.909656
vt 0.040811 0.079667
vt 0.545989 0.079667
vt 0.545989 0.909656
vt 0.040811 0.909656
vt 0.040811 0.079667
vt 0.545989 0.079667
vt 0.545989 0.909656
vt 0.040811 0.909656
vt 0.040811 0.079667
vt 0.545989 0.079667
vt 0.545989 0.909656
vt 0.545989 0.079667
vt 0.545989 0.909656
vt 0.040811 0.909656
vt 0.040811 0.079667
vt 0.545989 0.079667
vt 0.545989 0.909656
vt 0.040811 0.909656
vt 0.040811 0.079667
vt 0.545989 0.079667
vt 0.545989 0.909656
vt 0.040811 0.909656
vt 0.040811 0.079667
vt 0.545989 0.079667
vt 0.545989 0.909656
vt 0.040811 0.909656
vt 0.040811 0.079667
vn -0.5000 -0.7071 0.5000
vn -0.5000 0.7071 0.5000
vn -0.5000 0.7071 -0.5000
vn -0.5000 -0.7071 -0.5000
vn 0.5000 0.7071 -0.5000
vn 0.5000 -0.7071 -0.5000
vn 0.5000 0.7071 0.5000
vn 0.5000 -0.7071 0.5000
vn -0.7071 -0.7071 0.0000
vn 0.0000 -0.7071 -0.7071
vn 0.7071 -0.7071 0.0000
vn 0.0000 -0.7071 0.7071
vn -0.7071 0.7071 0.0000
vn 0.0000 0.7071 0.7071
vn 0.7071 0.7071 0.0000
vn 0.0000 0.7071 -0.7071
vn 0.0000 1.0000 0.0000
vn -0.8587 -0.3688 0.3557
vn -0.8587 0.3688 0.3557
vn -0.8587 0.3688 -0.3557
vn -0.8587 -0.3688 -0.3557
vn 0.8587 0.3688 -0.3557
vn 0.8587 -0.3688 -0.3557
vn 0.3557 -0.3688 -0.8587
vn 0.3557 0.3688 -0.8587
vn -0.3557 0.3688 -0.8587
vn -0.3557 -0.3688 -0.8587
vn 0.3557 0.3688 0.8587
vn 0.3557 -0.3688 0.8587
vn 0.8587 -0.3688 0.3557
vn 0.8587 0.3688 0.3557
vn -0.3557 0.3688 0.8587
vn -0.3557 -0.3688 0.8587
usemtl None
s off
f 3/1/1 1/2/1 2/3/1 4/4/1
f 7/5/2 5/6/2 6/7/2 8/8/2
f 15/9/3 13/10/3 14/11/3 16/12/3
f 11/13/4 9/14/4 10/15/4 12/16/4
f 50/17/5 27/18/5 28/19/5 29/20/5
f 25/21/6 23/22/6 24/23/6 26/24/6
f 42/25/7 44/26/7 21/27/7 22/28/7
f 19/29/8 17/30/8 18/31/8 20/32/8
f 4/4/9 10/15/9 9/14/9 3/1/9
f 12/16/10 24/23/10 23/22/10 11/13/10
f 26/24/11 18/31/11 17/30/11 25/21/11
f 20/32/12 2/33/12 1/34/12 19/29/12
f 5/6/13 15/9/13 16/12/13 6/7/13
f 44/26/14 7/35/14 8/36/14 21/27/14
f 22/28/15 28/19/15 27/18/15 42/25/15
f 29/20/16 14/11/16 13/10/16 50/17/16
f 53/37/17 55/38/17 38/39/17 40/40/17 32/41/17 34/42/17 46/43/17 48/44/17
f 5/45/1 7/46/1 30/47/1 31/48/1
f 34/49/2 32/50/2 33/51/2 35/52/2
f 40/53/3 38/54/3 39/55/3 41/56/3
f 13/57/4 15/58/4 36/59/4 37/60/4
f 55/61/5 53/62/5 54/63/5 56/64/5
f 27/65/6 50/66/6 51/67/6 52/68/6
f 48/69/7 46/70/7 47/71/7 49/72/7
f 44/73/8 42/74/8 43/75/8 45/76/8
f 31/48/9 36/59/9 15/58/9 5/45/9
f 37/60/10 51/67/10 50/66/10 13/57/10
f 52/68/11 43/75/11 42/74/11 27/65/11
f 45/76/12 30/77/12 7/78/12 44/73/12
f 32/50/13 40/53/13 41/56/13 33/51/13
f 46/70/14 34/79/14 35/80/14 47/71/14
f 49/72/15 54/63/15 53/62/15 48/69/15
f 56/64/16 39/55/16 38/54/16 55/61/16
s 1
f 4/81/18 6/82/19 16/83/20 10/84/21
f 28/85/22 26/86/23 24/87/24 29/88/25
f 14/89/26 12/90/27 10/91/21 16/92/20
f 21/93/28 20/94/29 18/95/30 22/96/31
f 20/97/29 21/98/28 8/99/32 2/100/33
f 12/101/27 14/102/26 29/103/25 24/104/24
f 26/105/23 28/106/22 22/107/31 18/108/30
f 2/109/33 8/110/32 6/111/19 4/112/18
f 31/113/18 33/114/19 41/115/20 36/116/21
f 54/117/22 52/118/23 51/119/24 56/120/25
f 39/121/26 37/122/27 36/123/21 41/124/20
f 47/125/28 45/126/29 43/127/30 49/128/31
f 45/129/29 47/130/28 35/131/32 30/132/33
f 37/133/27 39/134/26 56/135/25 51/136/24
f 52/137/23 54/138/22 49/139/31 43/140/30
f 30/141/33 35/142/32 33/143/19 31/144/18
o Leaf
v 0.678527 0.885122 -0.000000
v 0.508896 0.983059 -0.000000
v 0.508896 0.787185 -0.000000
v 0.339264 0.885122 -0.587622
v 0.254448 0.983059 -0.440717
v 0.254448 0.787185 -0.440717
v -0.339264 0.885122 -0.587622
v -0.254448 0.983059 -0.440717
v -0.254448 0.787185 -0.440717
v -0.678527 0.885122 -0.000000
v -0.508896 0.983059 -0.000000
v -0.508896 0.787185 -0.000000
v -0.339264 0.885122 0.587622
v -0.254448 0.983059 0.440717
v -0.254448 0.787185 0.440717
v 0.339264 0.885122 0.587622
v 0.254448 0.983059 0.440717
v 0.254448 0.787185 0.440717
v 0.231720 2.007797 -0.000000
v 0.115860 2.007797 -0.200675
v -0.115860 2.007797 -0.200675
v -0.231720 2.007797 -0.000000
v -0.115860 2.007797 0.200675
v 0.115860 2.007797 0.200675
v 0.115860 2.047129 -0.200675
v -0.115860 2.047129 -0.200675
v -0.231720 2.047129 -0.000000
v -0.115860 2.047129 0.200675
v 0.115860 2.047129 0.200675
v 0.231720 2.047129 -0.000000
vt 0.022615 0.338017
vt 0.536598 0.338017
vt 0.536598 0.502559
vt 0.022615 0.502559
vt 0.022615 0.021530
vt 0.536598 0.021530
vt 0.536598 0.184647
vt 0.022615 0.184647
vt 0.068079 0.338017
vt 0.493966 0.338017
vt 0.493966 0.502559
vt 0.068079 0.502559
vt 0.068079 0.021530
vt 0.493966 0.021530
vt 0.493966 0.184647
vt 0.068079 0.184647
vt 0.068079 0.338017
vt 0.493966 0.338017
vt 0.493966 0.502559
vt 0.068079 0.502559
vt 0.068079 0.021530
vt 0.493966 0.021530
vt 0.493966 0.184647
vt 0.068079 0.184647
vt 0.068079 0.338017
vt 0.493966 0.338017
vt 0.493966 0.502559
vt 0.068079 0.502559
vt 0.068079 0.021530
vt 0.493966 0.021530
vt 0.493966 0.184647
vt 0.068079 0.184647
vt 0.068079 0.338017
vt 0.493966 0.338017
vt 0.493966 0.502559
vt 0.068079 0.502559
vt 0.068079 0.021530
vt 0.493966 0.021530
vt 0.493966 0.184647
vt 0.068079 0.184647
vt 0.022615 0.338017
vt 0.536598 0.338017
vt 0.536598 0.502559
vt 0.022615 0.502559
vt 0.022615 0.021530
vt 0.536598 0.021530
vt 0.536598 0.184647
vt 0.022615 0.184647
vt 0.665868 0.915999
vt 0.960379 0.915999
vt 0.960379 0.948604
vt 0.665868 0.948604
vt 0.439728 0.838606
vt 0.250500 0.947857
vt 0.061272 0.838606
vt 0.061272 0.620104
vt 0.250500 0.510854
vt 0.439728 0.620104
vt 0.665868 0.915999
vt 0.960379 0.915999
vt 0.960379 0.948604
vt 0.665868 0.948604
vt 0.665868 0.915999
vt 0.960379 0.915999
vt 0.960379 0.948604
vt 0.665868 0.948604
vt 0.665868 0.915999
vt 0.960379 0.915999
vt 0.960379 0.948604
vt 0.665868 0.948604
vt 0.665868 0.915999
vt 0.960379 0.915999
vt 0.960379 0.948604
vt 0.665868 0.948604
vt 0.665868 0.915999
vt 0.960379 0.915999
vt 0.960379 0.948604
vt 0.665868 0.948604
vt 0.960379 0.078783
vt 0.665868 0.078783
vt 0.960379 0.078783
vt 0.665868 0.078783
vt 0.960379 0.078783
vt 0.665868 0.078783
vt 0.960379 0.078783
vt 0.665868 0.078783
vt 0.960379 0.078783
vt 0.665868 0.078783
vt 0.960379 0.078783
vt 0.665868 0.078783
vn 0.4804 0.8321 -0.2774
vn -0.8660 0.0000 0.5000
vn 0.4804 -0.8321 -0.2774
vn 0.0000 0.8321 -0.5547
vn 0.0000 0.0000 1.0000
vn 0.0000 -0.8321 -0.5547
vn -0.4804 0.8321 -0.2774
vn 0.8660 0.0000 0.5000
vn -0.4804 -0.8321 -0.2773
vn -0.4804 0.8321 0.2774
vn 0.8660 0.0000 -0.5000
vn -0.4804 -0.8321 0.2773
vn 0.0000 0.8321 0.5547
vn 0.0000 0.0000 -1.0000
vn 0.0000 -0.8321 0.5547
vn 0.4804 0.8321 0.2774
vn -0.8660 0.0000 -0.5000
vn 0.4804 -0.8321 0.2774
vn 0.0000 1.0000 0.0000
vn 0.1897 0.9252 -0.3286
vn 0.4952 0.1375 -0.8578
vn 0.9905 0.1375 0.0000
vn 0.3794 0.9252 0.0000
vn -0.1897 0.9252 -0.3286
vn -0.4952 0.1375 -0.8578
vn -0.3794 0.9252 0.0000
vn -0.9905 0.1375 0.0000
vn 0.1897 0.9252 0.3286
vn 0.4952 0.1375 0.8578
vn -0.4952 0.1375 0.8578
vn -0.1897 0.9252 0.3286
usemtl None
s off
f 57/145/34 60/146/34 61/147/34 58/148/34
f 58/149/35 61/150/35 62/151/35 59/152/35
f 59/152/36 62/151/36 60/146/36 57/145/36
f 60/153/37 63/154/37 64/155/37 61/156/37
f 61/157/38 64/158/38 65/159/38 62/160/38
f 62/160/39 65/159/39 63/154/39 60/153/39
f 63/161/40 66/162/40 67/163/40 64/164/40
f 64/165/41 67/166/41 68/167/41 65/168/41
f 65/168/42 68/167/42 66/162/42 63/161/42
f 66/169/43 69/170/43 70/171/43 67/172/43
f 67/173/44 70/174/44 71/175/44 68/176/44
f 68/176/45 71/175/45 69/170/45 66/169/45
f 69/177/46 72/178/46 73/179/46 70/180/46
f 70/181/47 73/182/47 74/183/47 71/184/47
f 71/184/48 74/183/48 72/178/48 69/177/48
f 72/185/49 57/186/49 58/187/49 73/188/49
f 73/189/50 58/190/50 59/191/50 74/192/50
f 74/192/51 59/191/51 57/186/51 72/185/51
f 78/193/35 79/194/35 84/195/35 83/196/35
f 81/197/52 82/198/52 83/199/52 84/200/52 85/201/52 86/202/52
f 80/203/41 75/204/41 86/205/41 85/206/41
f 77/207/50 78/208/50 83/209/50 82/210/50
f 75/211/44 76/212/44 81/213/44 86/214/44
f 79/215/38 80/216/38 85/217/38 84/218/38
f 76/219/47 77/220/47 82/221/47 81/222/47
s 1
f 61/223/53 76/212/54 75/211/55 58/224/56
f 64/225/57 77/220/58 76/219/54 61/226/53
f 67/227/59 78/208/60 77/207/58 64/228/57
f 73/229/61 80/216/62 79/215/63 70/230/64
f 58/231/56 75/204/55 80/203/62 73/232/61
f 70/233/64 79/194/63 78/193/60 67/234/59
